<?xml version="1.0" encoding="utf-8"?>
<!-- Generator: Adobe Illustrator 19.2.0, SVG Export Plug-In . SVG Version: 6.00 Build 0)  -->
<svg version="1.1" id="Layer_1" xmlns="http://www.w3.org/2000/svg" xmlns:xlink="http://www.w3.org/1999/xlink" x="0px" y="0px"
	 viewBox="0 0 42 42" style="enable-background:new 0 0 42 42;" xml:space="preserve">
<style type="text/css">
	.st0{fill:#FFFFFF;}
	.st1{fill:#839DC3;}
</style>
<g>
	<path class="st0" d="M39,42H3c-1.7,0-3-1.3-3-3V3c0-1.7,1.3-3,3-3h36c1.7,0,3,1.3,3,3v36C42,40.7,40.7,42,39,42z"/>
	<g>
		<path class="st1" d="M29.6,14.6c0,1.1-0.9,2-2,2H14.2c-1.1,0-2-0.9-2-2l0,0c0-1.1,0.9-2,2-2h13.4C28.7,12.5,29.6,13.4,29.6,14.6
			L29.6,14.6z"/>
		<path class="st1" d="M20.8,18.6h-6.6c-1.1,0-2,0.9-2,2c0,1.1,0.9,2,2,2h4.4C18.8,21,19.6,19.6,20.8,18.6z"/>
		<path class="st1" d="M18.7,24.6h-4.5c-1.1,0-2,0.9-2,2s0.9,2,2,2h7.3C20,27.8,19,26.3,18.7,24.6z"/>
		<path class="st1" d="M31.8,29l-3-3c0.5-0.8,0.8-1.7,0.8-2.7c0-2.7-2.2-4.9-4.9-4.9s-4.9,2.2-4.9,4.9s2.2,4.9,4.9,4.9
			c1,0,1.9-0.3,2.7-0.8l3,3L31.8,29z M21.9,23.4c0-1.6,1.3-2.9,2.9-2.9s2.9,1.3,2.9,2.9c0,1.6-1.3,2.9-2.9,2.9S21.9,25,21.9,23.4z"
			/>
	</g>
</g>
</svg>
